<svg xmlns="http://www.w3.org/2000/svg" xmlns:xlink="http://www.w3.org/1999/xlink" width="874" zoomAndPan="magnify" viewBox="0 0 655.5 655.499985" height="874" preserveAspectRatio="xMidYMid meet" version="1.0"><defs><clipPath id="e404ee1bcf"><path d="M 0 0 L 654.25 0 L 654.25 654.25 L 0 654.25 Z M 0 0 " clip-rule="nonzero"/></clipPath></defs><path fill="#000000" d="M 271.449219 252.523438 C 210.320312 287.816406 303.589844 462.671875 370.480469 424.050781 L 432.5 531.472656 C 404.277344 547.769531 380.386719 558.039062 347.667969 539.335938 C 256.820312 487.402344 156.816406 314.261719 159.664062 210.984375 C 160.652344 175.113281 181.785156 161.0625 209.429688 145.101562 Z M 271.449219 252.523438 " fill-opacity="1" fill-rule="evenodd"/><path fill="#000000" d="M 297.085938 249.605469 C 290.480469 253.417969 281.980469 251.144531 278.167969 244.539062 L 219.699219 143.269531 C 215.886719 136.660156 218.160156 128.164062 224.765625 124.347656 L 255.496094 106.605469 C 262.101562 102.792969 270.601562 105.070312 274.417969 111.675781 L 332.886719 212.945312 C 336.699219 219.550781 334.421875 228.050781 327.816406 231.863281 Z M 297.085938 249.605469 " fill-opacity="1" fill-rule="evenodd"/><path fill="#000000" d="M 456.816406 526.265625 C 450.210938 530.082031 441.710938 527.804688 437.898438 521.199219 L 379.429688 419.929688 C 375.617188 413.324219 377.890625 404.824219 384.496094 401.011719 L 415.226562 383.269531 C 421.832031 379.453125 430.332031 381.734375 434.144531 388.335938 L 492.613281 489.605469 C 496.429688 496.210938 494.152344 504.710938 487.546875 508.523438 Z M 456.816406 526.265625 " fill-opacity="1" fill-rule="evenodd"/><g clip-path="url(#e404ee1bcf)"><path fill="#000000" d="M 327.058594 0 L 327.0625 0 L 327.0625 0.078125 C 417.414062 0.078125 499.175781 36.664062 558.308594 95.808594 C 617.445312 154.949219 654.035156 236.703125 654.039062 327.054688 L 654.113281 327.054688 L 654.113281 327.066406 L 654.039062 327.066406 C 654.035156 417.414062 617.449219 499.179688 558.308594 558.3125 C 499.164062 617.449219 417.410156 654.039062 327.0625 654.042969 L 327.0625 654.117188 L 327.046875 654.117188 L 327.046875 654.042969 C 236.699219 654.039062 154.9375 617.453125 95.800781 558.3125 C 36.664062 499.167969 0.0742188 417.414062 0.0742188 327.066406 L -0.00390625 327.066406 L -0.00390625 327.050781 L 0.0742188 327.050781 C 0.0742188 236.703125 36.660156 154.9375 95.804688 95.804688 C 154.945312 36.667969 236.703125 0.078125 327.050781 0.078125 L 327.050781 0 Z M 327.0625 39.011719 L 327.0625 39.085938 L 327.050781 39.085938 L 327.050781 39.011719 C 247.597656 39.011719 175.601562 71.28125 123.445312 123.4375 C 71.292969 175.597656 39.015625 247.601562 39.015625 327.054688 L 39.089844 327.054688 L 39.089844 327.066406 L 39.015625 327.066406 C 39.015625 406.519531 71.285156 478.515625 123.441406 530.671875 C 175.601562 582.824219 247.605469 615.101562 327.058594 615.101562 L 327.058594 615.027344 L 327.074219 615.027344 L 327.074219 615.101562 C 406.523438 615.101562 478.519531 582.832031 530.675781 530.675781 C 582.828125 478.515625 615.105469 406.511719 615.105469 327.058594 L 615.03125 327.058594 L 615.03125 327.046875 L 615.105469 327.046875 C 615.105469 247.59375 582.835938 175.597656 530.679688 123.441406 C 478.519531 71.289062 406.515625 39.011719 327.0625 39.011719 Z M 327.0625 39.011719 " fill-opacity="1" fill-rule="nonzero"/></g></svg>