<svg xmlns="http://www.w3.org/2000/svg" xmlns:xlink="http://www.w3.org/1999/xlink" width="1442" zoomAndPan="magnify" viewBox="0 0 1081.5 1076.999951" height="1436" preserveAspectRatio="xMidYMid meet" version="1.0"><defs><clipPath id="f171b9a8c4"><path d="M 0 0.25 L 1080 0.25 L 1080 1076.75 L 0 1076.75 Z M 0 0.25 " clip-rule="nonzero"/></clipPath><clipPath id="3f2ad101cf"><path d="M 122.75 239.984375 L 421.113281 239.984375 L 421.113281 538.347656 L 122.75 538.347656 Z M 122.75 239.984375 " clip-rule="nonzero"/></clipPath></defs><g clip-path="url(#f171b9a8c4)"><path fill="#000000" d="M 540.359375 0.625 C 241.875 0.625 0 242.539062 0 541.074219 C 0 809.191406 195.558594 1031.921875 451.46875 1074.035156 L 451.46875 707.652344 L 313.921875 707.652344 L 313.921875 547.15625 L 451.46875 547.15625 L 451.46875 430.644531 C 451.46875 304.304688 553.925781 218.675781 680.246094 218.675781 C 736.386719 218.675781 771.472656 227.097656 771.472656 227.097656 L 771.472656 361.859375 L 680.246094 361.859375 C 642.347656 361.859375 611.472656 392.742188 611.472656 430.644531 L 611.472656 547.15625 L 758.84375 547.15625 L 738.257812 707.652344 L 611.472656 707.652344 L 611.472656 1076.375 C 875.804688 1041.28125 1079.78125 814.804688 1079.78125 541.074219 C 1080.25 242.539062 838.375 0.625 540.359375 0.625 Z M 540.359375 0.625 " fill-opacity="1" fill-rule="nonzero"/></g><path fill="#000000" d="M 246.558594 355.160156 C 218.675781 371.257812 261.214844 451.007812 291.726562 433.394531 L 320.011719 482.386719 C 307.140625 489.820312 296.246094 494.503906 281.320312 485.972656 C 239.886719 462.289062 194.273438 383.320312 195.574219 336.214844 C 196.023438 319.855469 205.664062 313.445312 218.273438 306.167969 Z M 246.558594 355.160156 " fill-opacity="1" fill-rule="evenodd"/><path fill="#000000" d="M 258.25 353.832031 C 255.238281 355.570312 251.363281 354.53125 249.621094 351.519531 L 222.957031 305.328125 C 221.214844 302.316406 222.253906 298.441406 225.265625 296.699219 L 239.28125 288.609375 C 242.296875 286.871094 246.171875 287.910156 247.910156 290.921875 L 274.578125 337.109375 C 276.316406 340.121094 275.28125 344 272.265625 345.738281 Z M 258.25 353.832031 " fill-opacity="1" fill-rule="evenodd"/><path fill="#000000" d="M 331.101562 480.015625 C 328.089844 481.753906 324.214844 480.714844 322.472656 477.703125 L 295.808594 431.511719 C 294.066406 428.5 295.105469 424.625 298.117188 422.882812 L 312.132812 414.792969 C 315.148438 413.054688 319.023438 414.09375 320.761719 417.105469 L 347.429688 463.292969 C 349.167969 466.304688 348.132812 470.183594 345.117188 471.921875 Z M 331.101562 480.015625 " fill-opacity="1" fill-rule="evenodd"/><g clip-path="url(#3f2ad101cf)"><path fill="#000000" d="M 271.921875 239.984375 L 271.925781 239.984375 L 271.925781 240.019531 C 313.132812 240.023438 350.421875 256.707031 377.394531 283.683594 C 404.367188 310.65625 421.054688 347.945312 421.054688 389.152344 L 421.089844 389.152344 L 421.089844 389.160156 L 421.054688 389.160156 C 421.054688 430.367188 404.367188 467.660156 377.390625 494.628906 C 350.417969 521.601562 313.128906 538.289062 271.921875 538.289062 L 271.921875 538.324219 L 271.914062 538.324219 L 271.914062 538.289062 C 230.707031 538.289062 193.417969 521.601562 166.445312 494.628906 C 139.472656 467.652344 122.785156 430.367188 122.785156 389.160156 L 122.75 389.160156 L 122.75 389.152344 L 122.785156 389.152344 C 122.785156 347.945312 139.472656 310.652344 166.445312 283.679688 C 193.421875 256.710938 230.710938 240.023438 271.917969 240.019531 L 271.917969 239.984375 Z M 271.925781 257.777344 L 271.925781 257.8125 L 271.917969 257.8125 L 271.917969 257.777344 C 235.679688 257.78125 202.84375 272.496094 179.054688 296.285156 C 155.265625 320.074219 140.546875 352.917969 140.546875 389.152344 L 140.582031 389.152344 L 140.582031 389.160156 L 140.546875 389.160156 C 140.546875 425.398438 155.265625 458.234375 179.054688 482.023438 C 202.84375 505.808594 235.683594 520.53125 271.921875 520.53125 L 271.921875 520.496094 L 271.925781 520.496094 L 271.925781 520.53125 C 308.164062 520.53125 341.003906 505.8125 364.789062 482.023438 C 388.578125 458.234375 403.296875 425.394531 403.296875 389.15625 L 403.265625 389.15625 L 403.265625 389.148438 L 403.296875 389.148438 C 403.296875 352.910156 388.582031 320.074219 364.792969 296.289062 C 341.003906 272.5 308.160156 257.777344 271.925781 257.777344 Z M 271.925781 257.777344 " fill-opacity="1" fill-rule="nonzero"/></g></svg>